<svg width="512" height="512" viewBox="0 0 135.467 135.467" xmlns="http://www.w3.org/2000/svg">
  <g stroke="#512bd4">
    <path
      d="M38.929 50.506c-1.734-1.01-.428-6.593 1.542-6.593 2.773 0 2.949-2.688.19-2.91-2.215-.18-2.226-.198-2.138-3.727.093-3.742 6.822-5.191 6.822-1.469 0 1.865.131 2.02 1.709 2.02 1.145 0 1.418-.382 1.516-2.124.082-1.435 5.802-2.524 6.606-1.258 1.362 2.148.044 6.558-1.96 6.558-2.365 0-2.309 2.726.058 2.86 2.079.117 2.125.194 2.125 3.513 0 3.45.032 3.418-3.356 3.413-3.43-.006-3.522-.05-3.527-1.681-.008-2.83-2.975-3.12-3.12-.307-.097 1.902-4.25 2.996-6.467 1.705z"
      fill="#a895e9" transform="matrix(6.47853 0 0 6.54383 -236.308 -209.426)" />
    <path d="M42.64 37.959l-.027 8.447 8.635.39-.14-8.884-8.468.047v0" fill="#dcd5f6" stroke-linecap="round"
      stroke-linejoin="round" transform="matrix(6.47853 0 0 6.54383 -236.308 -209.426)" />
  </g>
</svg>